<svg width="71" height="70" viewBox="0 0 71 70" fill="none" xmlns="http://www.w3.org/2000/svg">
<path d="M35.4861 0C15.8889 0 0 15.9166 0 35.548C0 52.2053 11.4502 66.143 26.8866 70C26.721 69.5201 26.6146 68.9632 26.6146 68.273V62.1972C25.1744 62.1972 22.7614 62.1972 22.1552 62.1972C19.7273 62.1972 17.5686 61.1515 16.5217 59.2082C15.3596 57.0487 15.1585 53.7457 12.2782 51.7253C11.4236 51.0529 12.0741 50.2857 13.0589 50.3893C14.8776 50.9048 16.3857 52.1549 17.8052 54.0093C19.2187 55.8667 19.8841 56.2873 22.5248 56.2873C23.8053 56.2873 25.7215 56.2133 27.5254 55.9289C28.4953 53.4613 30.1721 51.1892 32.2214 50.1168C20.4045 48.8993 14.7652 43.0102 14.7652 35.0148C14.7652 31.5726 16.229 28.2429 18.716 25.4376C17.8998 22.653 16.8736 16.9742 19.0294 14.8117C24.3464 14.8117 27.5609 18.2658 28.3327 19.1989C30.9823 18.2895 33.8922 17.774 36.9499 17.774C40.0135 17.774 42.9352 18.2895 45.5908 19.2048C46.3537 18.2776 49.5711 14.8117 54.9 14.8117C57.0646 16.9771 56.0267 22.6796 55.2016 25.4583C57.6738 28.2577 59.1287 31.5785 59.1287 35.0148C59.1287 43.0042 53.4983 48.8904 41.6991 50.1138C44.9461 51.8113 47.3148 56.5806 47.3148 60.1739V68.273C47.3148 68.581 47.2468 68.8032 47.2113 69.0669C61.0391 64.2116 70.9722 51.0588 70.9722 35.548C70.9722 15.9166 55.0833 0 35.4861 0Z" fill="white"/>
</svg>
