<svg width="70" height="70" viewBox="0 0 70 70" fill="none" xmlns="http://www.w3.org/2000/svg">
<path d="M21 58.3333H9.33333V23.3333H21V58.3333ZM15.169 18.6667C11.942 18.6667 9.33333 16.051 9.33333 12.831C9.33333 9.611 11.9467 7 15.169 7C18.3843 7 21 9.61567 21 12.831C21 16.051 18.3843 18.6667 15.169 18.6667ZM63 58.3333H51.7837V41.3C51.7837 37.2377 51.7067 32.0133 45.9527 32.0133C40.1123 32.0133 39.214 36.4373 39.214 41.006V58.3333H28V23.3077H38.766V28.0933H38.9177C40.4157 25.34 44.0767 22.4373 49.5367 22.4373C60.9 22.4373 63 29.6917 63 39.123V58.3333Z" fill="white"/>
</svg>
