<svg width="70" height="70" viewBox="0 0 70 70" fill="none" xmlns="http://www.w3.org/2000/svg">
<g clip-path="url(#clip0_1_15)">
<path d="M19.8333 16.3333C17.2288 16.3333 14.6497 16.8463 12.2434 17.8431C9.83715 18.8398 7.65074 20.3007 5.80905 22.1424C3.96735 23.9841 2.50644 26.1705 1.50972 28.5768C0.513004 30.9831 0 33.5621 0 36.1667C0 38.7712 0.513004 41.3503 1.50972 43.7566C2.50644 46.1628 3.96735 48.3493 5.80905 50.1909C7.65074 52.0326 9.83715 53.4936 12.2434 54.4903C14.6497 55.487 17.2288 56 19.8333 56C22.4379 56 25.0169 55.487 27.4232 54.4903C29.8295 53.4936 32.0159 52.0326 33.8576 50.1909C35.6993 48.3493 37.1602 46.1628 38.1569 43.7566C39.1537 41.3503 39.6667 38.7712 39.6667 36.1667C39.6667 33.5621 39.1537 30.9831 38.1569 28.5768C37.1602 26.1705 35.6993 23.9841 33.8576 22.1424C32.0159 20.3007 29.8295 18.8398 27.4232 17.8431C25.0169 16.8463 22.4379 16.3333 19.8333 16.3333ZM51.3333 18.6667C50.1077 18.6667 48.894 19.1193 47.7616 19.9988C46.6292 20.8782 45.6003 22.1673 44.7337 23.7923C43.867 25.4173 43.1795 27.3465 42.7105 29.4697C42.2414 31.5929 42 33.8685 42 36.1667C42 38.4648 42.2414 40.7404 42.7105 42.8636C43.1795 44.9868 43.867 46.916 44.7337 48.541C45.6003 50.1661 46.6292 51.4551 47.7616 52.3346C48.894 53.214 50.1077 53.6667 51.3333 53.6667C52.559 53.6667 53.7727 53.214 54.905 52.3346C56.0374 51.4551 57.0663 50.1661 57.933 48.541C58.7997 46.916 59.4872 44.9868 59.9562 42.8636C60.4253 40.7404 60.6667 38.4648 60.6667 36.1667C60.6667 33.8685 60.4253 31.5929 59.9562 29.4697C59.4872 27.3465 58.7997 25.4173 57.933 23.7923C57.0663 22.1673 56.0374 20.8782 54.905 19.9988C53.7727 19.1193 52.559 18.6667 51.3333 18.6667ZM66.5 21C65.5717 21 64.6815 22.5979 64.0251 25.4422C63.3687 28.2865 63 32.1442 63 36.1667C63 40.1891 63.3687 44.0468 64.0251 46.8911C64.6815 49.7354 65.5717 51.3333 66.5 51.3333C67.4283 51.3333 68.3185 49.7354 68.9749 46.8911C69.6312 44.0468 70 40.1891 70 36.1667C70 32.1442 69.6312 28.2865 68.9749 25.4422C68.3185 22.5979 67.4283 21 66.5 21Z" fill="white"/>
</g>
<defs>
<clipPath id="clip0_1_15">
<rect width="70" height="70" rx="16" fill="white"/>
</clipPath>
</defs>
</svg>
